<svg width="644" height="642" viewBox="0 0 644 642" fill="none" xmlns="http://www.w3.org/2000/svg">
<path d="M244.74 482.404C242.905 471.285 241.106 460.158 239.235 449.045C237.337 437.771 233.461 427.447 224.687 420.047C222.343 418.07 219.912 416.225 217.471 414.385C216.613 413.738 215.756 413.09 214.908 412.429C214.857 412.389 214.825 412.365 214.781 412.33C214.688 412.25 214.576 412.155 214.425 412.028C210.769 408.933 207.235 405.7 203.87 402.264C200.881 399.213 198.023 396.031 195.295 392.719C194.613 391.892 193.941 391.058 193.276 390.216C193.162 390.071 192.547 389.276 192.142 388.757C191.765 388.238 191.076 387.3 190.96 387.136C190.184 386.039 189.422 384.932 188.674 383.814C183.578 376.179 179.165 368.109 175.487 359.699C175.122 358.865 174.766 358.026 174.419 357.182C174.325 356.924 174.205 356.593 174.045 356.153C173.303 354.115 172.564 352.079 171.886 350.016C170.446 345.636 169.208 341.19 168.172 336.68C167.66 334.453 167.199 332.215 166.789 329.965C166.577 328.808 166.38 327.649 166.195 326.487C166.165 326.295 165.985 325.041 165.88 324.333C165.801 323.621 165.656 322.361 165.636 322.167C165.519 320.996 165.415 319.824 165.324 318.651C165.12 316.01 164.981 313.366 164.909 310.717C164.786 306.01 164.871 301.302 165.162 296.595C165.328 293.951 165.565 291.313 165.856 288.68C165.873 288.518 165.887 288.39 165.9 288.274C165.917 288.156 165.938 288.023 165.962 287.856C166.177 286.401 166.404 284.948 166.657 283.5C167.617 278 168.865 272.555 170.397 267.186C171.122 264.647 171.909 262.129 172.759 259.631C173.138 258.522 173.529 257.418 173.932 256.317C173.906 256.388 175.114 253.302 175.131 253.198C179.925 241.869 187.768 231.541 187.779 218.671C187.786 209.958 180.415 201.611 171.779 202.014C167.473 202.176 163.399 204.003 160.414 207.111C157.429 210.218 155.768 214.363 155.779 218.671C155.779 218.867 155.778 219.034 155.778 219.196C155.697 219.467 155.63 219.694 155.569 219.894C154.634 221.926 153.488 223.857 152.462 225.838C149.652 231.262 147.253 236.863 144.974 242.547C141.243 251.802 138.388 261.387 136.445 271.175C132.221 292.621 131.893 314.653 135.477 336.215C141.68 374.028 162.138 410.224 190.58 434.554C193.048 436.666 195.576 438.706 198.129 440.705C199.185 441.532 200.25 442.344 201.32 443.151C201.826 443.532 203.922 445.185 203 444.384C204.982 446.076 205.817 446.928 206.326 448.174C206.4 448.461 206.5 448.851 206.636 449.385C206.995 450.79 207.336 452.192 207.619 453.617C210.095 466.069 211.816 478.729 213.883 491.261C215.305 499.871 225.905 505.476 233.566 502.895C242.482 499.891 246.263 491.631 244.74 482.404Z" fill="#E6E6E6"/>
<path d="M382.222 514.701C375.502 514.718 369.05 512.07 364.281 507.336C359.511 502.603 356.814 496.17 356.782 489.451V471.199C337.673 473.339 272.238 472.843 253.482 469.829V488.721C253.431 495.435 250.729 501.857 245.963 506.587C241.198 511.317 234.756 513.971 228.042 513.971C221.327 513.971 214.885 511.317 210.12 506.587C205.354 501.857 202.652 495.435 202.601 488.721V451.629C177.197 437.516 156.019 416.88 141.253 391.849C126.487 366.819 118.667 338.302 118.601 309.241C118.601 259.411 141.184 212.926 180.56 181.707C206.162 161.34 237.268 149.091 269.883 146.534C274.31 146.187 278.764 146.011 283.121 146.011C298.474 146.011 367.74 148.383 385.119 153.383L424.747 114.061C425.33 113.475 426.074 113.076 426.884 112.914C427.694 112.753 428.534 112.836 429.297 113.154C430.066 113.46 430.724 113.991 431.185 114.677C431.646 115.364 431.889 116.174 431.882 117.001V123.253L439.598 115.611C440.179 115.024 440.923 114.624 441.733 114.463C442.542 114.301 443.382 114.384 444.144 114.702C444.913 115.008 445.572 115.539 446.034 116.226C446.496 116.913 446.739 117.723 446.732 118.551V188.415C466.616 206.342 481.772 228.896 490.855 254.081C499.939 279.265 502.669 306.301 498.805 332.793C494.941 359.285 484.602 384.415 468.703 405.955C452.805 427.496 431.838 444.782 407.661 456.282V489.451C407.629 496.17 404.932 502.603 400.162 507.336C395.393 512.07 388.941 514.718 382.222 514.701ZM358.782 468.931V489.451C358.832 495.634 361.324 501.548 365.714 505.902C370.105 510.257 376.038 512.7 382.221 512.7C388.405 512.7 394.338 510.257 398.729 505.902C403.119 501.548 405.611 495.634 405.661 489.451V455.018L406.232 454.747C433.36 441.875 456.389 421.735 472.763 396.566C493.628 364.447 502.305 325.92 497.224 287.958C492.144 249.996 473.641 215.107 445.064 189.606L444.732 189.307V118.55C444.739 118.121 444.614 117.699 444.374 117.342C444.134 116.985 443.791 116.71 443.39 116.555C442.992 116.385 442.551 116.339 442.126 116.423C441.701 116.507 441.312 116.718 441.009 117.028L429.882 128.049V117.001C429.889 116.571 429.764 116.149 429.524 115.792C429.284 115.435 428.941 115.161 428.54 115.005C428.14 114.835 427.699 114.789 427.273 114.875C426.848 114.96 426.458 115.171 426.155 115.482L385.678 155.645L385.103 155.465C368.947 150.408 298.59 148.011 283.121 148.011C278.815 148.011 274.414 148.185 270.04 148.528C237.821 151.054 207.093 163.154 181.803 183.274C142.908 214.112 120.601 260.025 120.601 309.241C120.668 338.045 128.445 366.306 143.126 391.088C157.807 415.87 178.856 436.269 204.086 450.166L204.601 450.451V488.721C204.653 494.904 207.145 500.816 211.536 505.17C215.926 509.524 221.859 511.966 228.042 511.966C234.225 511.966 240.157 509.524 244.548 505.17C248.938 500.816 251.43 494.904 251.482 488.721V467.435L252.667 467.658C269.522 470.829 340.498 471.329 357.651 469.079L358.782 468.931Z" fill="#3F3D56"/>
<path d="M310.782 0C292.59 0.00703459 275.116 7.09219 262.057 19.7558C248.997 32.4195 241.378 49.6678 240.811 67.85C240.791 68.56 240.782 69.28 240.782 70C240.782 83.8447 244.887 97.3785 252.579 108.89C260.27 120.401 271.203 129.373 283.994 134.672C296.785 139.97 310.859 141.356 324.438 138.655C338.017 135.954 350.489 129.287 360.279 119.497C370.069 109.708 376.736 97.235 379.436 83.6563C382.137 70.0777 380.751 56.003 375.453 43.2122C370.155 30.4213 361.183 19.4888 349.671 11.7971C338.16 4.10544 324.626 0 310.782 0ZM310.782 138C292.753 137.981 275.467 130.811 262.719 118.063C249.971 105.314 242.8 88.029 242.782 70C242.782 69.07 242.802 68.15 242.842 67.24C243.383 53.9198 247.828 41.0526 255.624 30.2384C263.42 19.4242 274.222 11.1401 286.688 6.41621C299.155 1.6923 312.734 0.736976 325.739 3.66905C338.744 6.60113 350.6 13.2912 359.833 22.9075C369.066 32.5237 375.268 44.6419 377.67 57.7551C380.071 70.8683 378.564 84.398 373.337 96.6618C368.111 108.926 359.394 119.383 348.272 126.732C337.15 134.082 324.113 138 310.782 138Z" fill="#3F3D56"/>
<path d="M369.782 69.9998C369.782 85.6476 363.566 100.654 352.501 111.719C341.436 122.784 326.429 129 310.782 129C295.134 129 280.127 122.784 269.062 111.719C257.998 100.654 251.782 85.6476 251.782 69.9998C251.782 68.1298 251.871 66.2898 252.041 64.4698C253.463 49.3681 260.647 35.3941 272.1 25.4494C283.554 15.5047 298.398 10.3534 313.55 11.065C328.701 11.7767 342.997 18.2966 353.468 29.2711C363.939 40.2455 369.781 54.8313 369.782 69.9998Z" fill="#E6E6E6"/>
<path d="M328.351 73.9203C326.921 72.04 325.04 70.5508 322.882 69.5903C320.22 68.4684 317.47 67.5654 314.661 66.8903V50.8303C318.979 51.4813 323.028 53.3276 326.351 56.1603L329.612 49.2103C327.737 47.5399 325.584 46.2099 323.251 45.2803C320.666 44.2334 317.952 43.5372 315.181 43.2103V35.0703H307.632V43.2903C304.716 43.6178 301.904 44.5621 299.382 46.0603C297.103 47.4089 295.185 49.2891 293.791 51.5403C292.461 53.7372 291.772 56.2623 291.802 58.8303C291.672 61.6132 292.478 64.3593 294.092 66.6303C295.577 68.5965 297.538 70.1521 299.791 71.1503C302.496 72.3054 305.292 73.2319 308.152 73.9203V89.3103C303.057 88.926 298.202 86.989 294.242 83.7603L290.982 90.7203C293.196 92.551 295.714 93.9793 298.422 94.9403C301.388 96.002 304.488 96.6481 307.632 96.8603V104.93H315.182V96.7103C319.375 96.2521 323.308 94.4489 326.391 91.5703C327.75 90.2679 328.822 88.6977 329.542 86.9591C330.261 85.2206 330.612 83.3515 330.572 81.4703C330.697 78.7762 329.915 76.1177 328.351 73.9203ZM308.152 65.1903C306.313 64.6326 304.603 63.7148 303.121 62.4903C302.535 61.9682 302.071 61.3226 301.763 60.5999C301.455 59.8771 301.311 59.0952 301.342 58.3103C301.287 56.5292 301.942 54.7993 303.161 53.5003C304.514 52.1375 306.259 51.2319 308.152 50.9103V65.1903ZM319.402 86.4703C318.126 87.7787 316.465 88.6442 314.661 88.9403V75.7003C316.385 76.1628 317.997 76.9689 319.402 78.0703C319.934 78.5249 320.357 79.0937 320.639 79.7343C320.921 80.3748 321.055 81.0708 321.032 81.7703C321.101 83.4866 320.519 85.1656 319.402 86.4703Z" fill="#21A985"/>
<path d="M125.502 259.251C111.549 257.19 98.2054 252.145 86.3795 244.459C80.5207 240.654 75.097 236.219 70.2056 231.231C65.3777 226.307 60.7591 220.71 58.3678 214.152C56.067 208.084 56.1856 201.365 58.699 195.382C61.1781 189.437 65.9138 184.716 71.8678 182.257C77.8574 179.868 85.094 179.613 90.9232 182.229C93.7009 183.446 96.1046 185.381 97.8875 187.835C98.7163 188.966 99.3299 190.24 99.6978 191.593C100.039 192.819 100.07 194.111 99.7882 195.352C99.4464 196.591 98.8436 197.743 98.0202 198.73C97.1969 199.717 96.172 200.516 95.0143 201.075C92.4665 202.382 89.7058 203.224 86.8622 203.561C84.0021 203.951 79.8935 204.306 77.5942 202.01C77.1209 201.556 76.7486 201.007 76.5016 200.399C76.3288 199.934 76.2696 199.434 76.3292 198.941C76.2957 199.158 76.4679 198.469 76.4581 198.496C76.4217 198.598 76.2643 198.847 76.4881 198.465C76.558 198.339 76.6359 198.218 76.7212 198.102C76.6452 198.2 76.4783 198.364 76.7764 198.083C77.0227 197.813 77.3393 197.618 77.6907 197.518C77.8291 197.478 77.9695 197.446 78.1083 197.408C78.4611 197.312 77.7567 197.413 78.1176 197.402C78.2568 197.397 78.3978 197.401 78.5366 197.395C78.8906 197.379 78.1873 197.298 78.5266 197.383C78.6583 197.416 78.7888 197.449 78.9186 197.49C79.2007 197.579 78.7188 197.283 78.91 197.504C79.134 197.764 78.6748 197.252 78.9294 197.503C79.0561 197.627 79.1755 197.759 79.2871 197.897C79.7286 198.333 80.3241 198.578 80.9446 198.578C81.565 198.578 82.1605 198.333 82.6021 197.897C83.0286 197.451 83.2666 196.857 83.2666 196.24C83.2666 195.622 83.0286 195.029 82.6021 194.582C80.2907 191.717 75.725 192.425 73.3868 194.847C70.4048 197.935 71.5857 202.83 74.4863 205.525C77.77 208.575 82.4207 208.787 86.6447 208.276C90.2144 207.934 93.6931 206.951 96.9138 205.374C100.114 203.801 102.617 201.097 103.938 197.786C104.534 196.018 104.748 194.144 104.566 192.288C104.384 190.431 103.81 188.635 102.881 187.017C99.1521 180.005 91.4299 176.411 83.7971 175.788C79.8673 175.48 75.9155 175.955 72.1703 177.185C68.4251 178.414 64.961 180.374 61.9783 182.951C56.2293 188.127 52.6892 195.314 52.09 203.026C51.4238 211.022 54.5261 218.787 59.0493 225.24C63.7845 231.797 69.4351 237.641 75.8287 242.594C88.3281 252.573 102.99 259.488 118.641 262.784C120.502 263.169 122.374 263.498 124.255 263.772C124.854 263.917 125.486 263.829 126.021 263.524C126.557 263.22 126.957 262.723 127.139 262.135C127.3 261.536 127.218 260.897 126.912 260.357C126.605 259.818 126.099 259.421 125.502 259.251Z" fill="#3F3D56"/>
<path d="M348.887 157.374C328.445 157.086 308.067 157.604 287.754 158.931C280.811 159.384 274.803 161.838 274.803 165.963C274.803 169.411 280.763 173.451 287.754 172.995C308.057 171.669 328.435 171.15 348.887 171.438C365.561 171.674 365.551 157.609 348.887 157.374Z" fill="#CCCCCC"/>
<path d="M318.673 170.744C316.464 170.744 264.568 170.661 264.568 163.493C264.568 156.325 316.464 156.242 318.673 156.242C320.883 156.242 372.779 156.325 372.779 163.493C372.779 170.661 320.883 170.744 318.673 170.744ZM266.597 163.493C268.017 165.666 287.093 168.744 318.673 168.744C350.253 168.744 369.329 165.666 370.75 163.493C369.33 161.32 350.253 158.242 318.673 158.242C287.093 158.242 268.017 161.32 266.597 163.493Z" fill="#3F3D56"/>
<path d="M483.327 359.193C494.815 358.874 509.113 358.475 520.128 350.429C523.408 347.935 526.103 344.753 528.024 341.108C529.945 337.462 531.045 333.441 531.249 329.326C531.473 322.971 529.178 317.424 524.784 313.711C519.031 308.85 510.63 307.71 501.576 310.37L510.956 241.822L504.071 240.879L493.044 321.466L498.794 318.827C505.46 315.77 514.611 314.214 520.297 319.019C521.694 320.275 522.782 321.837 523.476 323.582C524.171 325.327 524.454 327.209 524.303 329.081C524.135 332.144 523.308 335.135 521.88 337.85C520.452 340.565 518.456 342.941 516.028 344.816C507.456 351.077 496.06 351.885 483.134 352.246L483.327 359.193Z" fill="#3F3D56"/>
<path d="M470.439 240.947L434.751 229.652L432.654 236.279L468.341 247.573L470.439 240.947Z" fill="#3F3D56"/>
<path d="M451.615 282.613C456.033 282.613 459.615 277.688 459.615 271.613C459.615 265.538 456.033 260.613 451.615 260.613C447.197 260.613 443.615 265.538 443.615 271.613C443.615 277.688 447.197 282.613 451.615 282.613Z" fill="#3F3D56"/>
<path d="M3.75 623V564.818H44.6591V577.545H19.5455V587.545H42.1591V600.273H19.5455V623H3.75ZM50.696 623V579.364H66.3778V623H50.696ZM58.5369 574.818C56.4157 574.818 54.5975 574.117 53.0824 572.716C51.5672 571.314 50.8097 569.629 50.8097 567.659C50.8097 565.689 51.5672 564.004 53.0824 562.602C54.5975 561.201 56.4157 560.5 58.5369 560.5C60.6771 560.5 62.4953 561.201 63.9915 562.602C65.5066 564.004 66.2642 565.689 66.2642 567.659C66.2642 569.629 65.5066 571.314 63.9915 572.716C62.4953 574.117 60.6771 574.818 58.5369 574.818ZM90.0497 598.455V623H74.3679V579.364H89.2543V587.659H89.7088C90.6558 584.894 92.3224 582.725 94.7088 581.153C97.1141 579.581 99.9171 578.795 103.118 578.795C106.205 578.795 108.885 579.506 111.158 580.926C113.449 582.328 115.22 584.259 116.47 586.722C117.739 589.184 118.364 591.996 118.345 595.159V623H102.663V598.455C102.682 596.295 102.133 594.6 101.016 593.369C99.9171 592.138 98.383 591.523 96.4134 591.523C95.1255 591.523 93.9986 591.807 93.0327 592.375C92.0857 592.924 91.3565 593.72 90.8452 594.761C90.3338 595.784 90.0687 597.015 90.0497 598.455ZM138.246 623.682C135.462 623.682 133 623.227 130.859 622.318C128.738 621.39 127.071 619.989 125.859 618.114C124.647 616.239 124.041 613.852 124.041 610.955C124.041 608.568 124.448 606.532 125.263 604.847C126.077 603.142 127.214 601.75 128.672 600.67C130.13 599.591 131.825 598.767 133.757 598.199C135.708 597.631 137.81 597.261 140.064 597.091C142.507 596.902 144.467 596.674 145.945 596.409C147.441 596.125 148.52 595.737 149.183 595.244C149.846 594.733 150.178 594.061 150.178 593.227V593.114C150.178 591.977 149.742 591.106 148.871 590.5C148 589.894 146.882 589.591 145.518 589.591C144.022 589.591 142.801 589.922 141.854 590.585C140.926 591.229 140.367 592.223 140.178 593.568H125.746C125.935 590.917 126.778 588.473 128.274 586.239C129.789 583.985 131.996 582.186 134.893 580.841C137.791 579.477 141.409 578.795 145.746 578.795C148.871 578.795 151.674 579.165 154.155 579.903C156.636 580.623 158.748 581.636 160.49 582.943C162.232 584.231 163.558 585.746 164.467 587.489C165.395 589.212 165.859 591.087 165.859 593.114V623H151.2V616.864H150.859C149.988 618.492 148.928 619.809 147.678 620.812C146.446 621.816 145.036 622.545 143.445 623C141.873 623.455 140.14 623.682 138.246 623.682ZM143.359 613.795C144.553 613.795 145.67 613.549 146.712 613.057C147.772 612.564 148.634 611.854 149.297 610.926C149.96 609.998 150.291 608.871 150.291 607.545V603.909C149.875 604.08 149.429 604.241 148.956 604.392C148.501 604.544 148.009 604.686 147.479 604.818C146.967 604.951 146.418 605.074 145.831 605.188C145.263 605.301 144.666 605.405 144.041 605.5C142.829 605.689 141.835 606.002 141.058 606.438C140.301 606.854 139.732 607.375 139.354 608C138.994 608.606 138.814 609.288 138.814 610.045C138.814 611.258 139.24 612.186 140.092 612.83C140.945 613.473 142.034 613.795 143.359 613.795ZM189.034 598.455V623H173.352V579.364H188.239V587.659H188.693C189.64 584.894 191.307 582.725 193.693 581.153C196.098 579.581 198.902 578.795 202.102 578.795C205.189 578.795 207.869 579.506 210.142 580.926C212.434 582.328 214.205 584.259 215.455 586.722C216.723 589.184 217.348 591.996 217.33 595.159V623H201.648V598.455C201.667 596.295 201.117 594.6 200 593.369C198.902 592.138 197.367 591.523 195.398 591.523C194.11 591.523 192.983 591.807 192.017 592.375C191.07 592.924 190.341 593.72 189.83 594.761C189.318 595.784 189.053 597.015 189.034 598.455ZM246.094 623.795C241.359 623.795 237.306 622.858 233.935 620.983C230.563 619.089 227.978 616.456 226.179 613.085C224.38 609.695 223.48 605.765 223.48 601.295C223.48 596.826 224.38 592.905 226.179 589.534C227.978 586.144 230.563 583.511 233.935 581.636C237.306 579.742 241.359 578.795 246.094 578.795C250.374 578.795 254.077 579.572 257.202 581.125C260.346 582.659 262.779 584.837 264.503 587.659C266.226 590.462 267.098 593.758 267.116 597.545H252.571C252.363 595.254 251.7 593.511 250.582 592.318C249.484 591.106 248.063 590.5 246.321 590.5C244.957 590.5 243.764 590.898 242.741 591.693C241.719 592.47 240.923 593.653 240.355 595.244C239.787 596.816 239.503 598.795 239.503 601.182C239.503 603.568 239.787 605.557 240.355 607.148C240.923 608.72 241.719 609.903 242.741 610.699C243.764 611.475 244.957 611.864 246.321 611.864C247.476 611.864 248.499 611.598 249.389 611.068C250.279 610.519 250.999 609.723 251.548 608.682C252.116 607.621 252.457 606.333 252.571 604.818H267.116C267.06 608.663 266.179 612.015 264.474 614.875C262.77 617.716 260.355 619.913 257.23 621.466C254.124 623.019 250.412 623.795 246.094 623.795ZM294.496 623.795C289.837 623.795 285.821 622.905 282.45 621.125C279.098 619.326 276.513 616.75 274.695 613.398C272.895 610.027 271.996 605.992 271.996 601.295C271.996 596.788 272.905 592.848 274.723 589.477C276.541 586.106 279.107 583.483 282.422 581.608C285.736 579.733 289.647 578.795 294.155 578.795C297.45 578.795 300.433 579.307 303.104 580.33C305.774 581.352 308.056 582.839 309.95 584.79C311.844 586.722 313.303 589.07 314.325 591.835C315.348 594.6 315.859 597.716 315.859 601.182V604.818H276.882V596.182H301.428C301.409 594.932 301.087 593.833 300.462 592.886C299.856 591.92 299.032 591.172 297.99 590.642C296.967 590.093 295.803 589.818 294.496 589.818C293.227 589.818 292.062 590.093 291.001 590.642C289.941 591.172 289.089 591.911 288.445 592.858C287.82 593.805 287.488 594.913 287.45 596.182V605.5C287.45 606.902 287.744 608.152 288.331 609.25C288.918 610.348 289.761 611.21 290.859 611.835C291.958 612.46 293.284 612.773 294.837 612.773C295.916 612.773 296.901 612.621 297.791 612.318C298.7 612.015 299.477 611.58 300.121 611.011C300.765 610.424 301.238 609.723 301.541 608.909H315.859C315.367 611.939 314.202 614.572 312.365 616.807C310.528 619.023 308.094 620.746 305.064 621.977C302.053 623.189 298.53 623.795 294.496 623.795ZM336.378 577.545V564.818H386.946V577.545H369.446V623H353.878V577.545H336.378ZM388.587 623V579.364H403.814V587.659H404.268C405.064 584.591 406.323 582.347 408.047 580.926C409.789 579.506 411.825 578.795 414.155 578.795C414.837 578.795 415.509 578.852 416.172 578.966C416.854 579.061 417.507 579.203 418.132 579.392V592.773C417.356 592.508 416.399 592.309 415.263 592.176C414.126 592.044 413.151 591.977 412.337 591.977C410.803 591.977 409.42 592.328 408.189 593.028C406.977 593.71 406.02 594.676 405.32 595.926C404.619 597.157 404.268 598.606 404.268 600.273V623H388.587ZM433.402 623.682C430.618 623.682 428.156 623.227 426.016 622.318C423.894 621.39 422.228 619.989 421.016 618.114C419.804 616.239 419.197 613.852 419.197 610.955C419.197 608.568 419.605 606.532 420.419 604.847C421.233 603.142 422.37 601.75 423.828 600.67C425.286 599.591 426.982 598.767 428.913 598.199C430.864 597.631 432.966 597.261 435.22 597.091C437.663 596.902 439.624 596.674 441.101 596.409C442.597 596.125 443.677 595.737 444.339 595.244C445.002 594.733 445.334 594.061 445.334 593.227V593.114C445.334 591.977 444.898 591.106 444.027 590.5C443.156 589.894 442.038 589.591 440.675 589.591C439.179 589.591 437.957 589.922 437.01 590.585C436.082 591.229 435.523 592.223 435.334 593.568H420.902C421.091 590.917 421.934 588.473 423.43 586.239C424.946 583.985 427.152 582.186 430.05 580.841C432.947 579.477 436.565 578.795 440.902 578.795C444.027 578.795 446.83 579.165 449.311 579.903C451.792 580.623 453.904 581.636 455.646 582.943C457.389 584.231 458.714 585.746 459.624 587.489C460.552 589.212 461.016 591.087 461.016 593.114V623H446.357V616.864H446.016C445.144 618.492 444.084 619.809 442.834 620.812C441.603 621.816 440.192 622.545 438.601 623C437.029 623.455 435.296 623.682 433.402 623.682ZM438.516 613.795C439.709 613.795 440.826 613.549 441.868 613.057C442.929 612.564 443.79 611.854 444.453 610.926C445.116 609.998 445.447 608.871 445.447 607.545V603.909C445.031 604.08 444.586 604.241 444.112 604.392C443.658 604.544 443.165 604.686 442.635 604.818C442.124 604.951 441.574 605.074 440.987 605.188C440.419 605.301 439.822 605.405 439.197 605.5C437.985 605.689 436.991 606.002 436.214 606.438C435.457 606.854 434.889 607.375 434.51 608C434.15 608.606 433.97 609.288 433.97 610.045C433.97 611.258 434.396 612.186 435.249 612.83C436.101 613.473 437.19 613.795 438.516 613.795ZM489.531 623.795C484.796 623.795 480.743 622.858 477.372 620.983C474.001 619.089 471.416 616.456 469.616 613.085C467.817 609.695 466.918 605.765 466.918 601.295C466.918 596.826 467.817 592.905 469.616 589.534C471.416 586.144 474.001 583.511 477.372 581.636C480.743 579.742 484.796 578.795 489.531 578.795C493.812 578.795 497.514 579.572 500.639 581.125C503.783 582.659 506.217 584.837 507.94 587.659C509.664 590.462 510.535 593.758 510.554 597.545H496.009C495.8 595.254 495.137 593.511 494.02 592.318C492.921 591.106 491.501 590.5 489.759 590.5C488.395 590.5 487.202 590.898 486.179 591.693C485.156 592.47 484.361 593.653 483.793 595.244C483.224 596.816 482.94 598.795 482.94 601.182C482.94 603.568 483.224 605.557 483.793 607.148C484.361 608.72 485.156 609.903 486.179 610.699C487.202 611.475 488.395 611.864 489.759 611.864C490.914 611.864 491.937 611.598 492.827 611.068C493.717 610.519 494.437 609.723 494.986 608.682C495.554 607.621 495.895 606.333 496.009 604.818H510.554C510.497 608.663 509.616 612.015 507.912 614.875C506.207 617.716 503.793 619.913 500.668 621.466C497.562 623.019 493.849 623.795 489.531 623.795ZM531.115 612.659L531.229 594.023H533.274L543.842 579.364H561.456L543.729 602.205H539.297L531.115 612.659ZM517.024 623V564.818H532.706V623H517.024ZM543.956 623L533.956 605.727L544.183 594.591L561.911 623H543.956ZM584.652 623.795C579.993 623.795 575.978 622.905 572.607 621.125C569.254 619.326 566.669 616.75 564.851 613.398C563.052 610.027 562.152 605.992 562.152 601.295C562.152 596.788 563.061 592.848 564.879 589.477C566.697 586.106 569.264 583.483 572.578 581.608C575.893 579.733 579.804 578.795 584.311 578.795C587.607 578.795 590.589 579.307 593.26 580.33C595.93 581.352 598.213 582.839 600.107 584.79C602 586.722 603.459 589.07 604.482 591.835C605.504 594.6 606.016 597.716 606.016 601.182V604.818H567.038V596.182H591.584C591.565 594.932 591.243 593.833 590.618 592.886C590.012 591.92 589.188 591.172 588.146 590.642C587.124 590.093 585.959 589.818 584.652 589.818C583.383 589.818 582.218 590.093 581.158 590.642C580.097 591.172 579.245 591.911 578.601 592.858C577.976 593.805 577.644 594.913 577.607 596.182V605.5C577.607 606.902 577.9 608.152 578.487 609.25C579.074 610.348 579.917 611.21 581.016 611.835C582.114 612.46 583.44 612.773 584.993 612.773C586.072 612.773 587.057 612.621 587.947 612.318C588.857 612.015 589.633 611.58 590.277 611.011C590.921 610.424 591.394 609.723 591.697 608.909H606.016C605.523 611.939 604.358 614.572 602.521 616.807C600.684 619.023 598.25 620.746 595.22 621.977C592.209 623.189 588.686 623.795 584.652 623.795ZM612.415 623V579.364H627.642V587.659H628.097C628.892 584.591 630.152 582.347 631.875 580.926C633.617 579.506 635.653 578.795 637.983 578.795C638.665 578.795 639.337 578.852 640 578.966C640.682 579.061 641.335 579.203 641.96 579.392V592.773C641.184 592.508 640.227 592.309 639.091 592.176C637.955 592.044 636.979 591.977 636.165 591.977C634.631 591.977 633.248 592.328 632.017 593.028C630.805 593.71 629.848 594.676 629.148 595.926C628.447 597.157 628.097 598.606 628.097 600.273V623H612.415Z" fill="#21A985"/>
</svg>
