<svg width="934" height="630" viewBox="0 0 934 630" fill="none" xmlns="http://www.w3.org/2000/svg">
<g clip-path="url(#clip0_153_878)">
<path d="M603.482 142.658C621.155 142.658 635.482 128.331 635.482 110.658C635.482 92.9851 621.155 78.6582 603.482 78.6582C585.809 78.6582 571.482 92.9851 571.482 110.658C571.482 128.331 585.809 142.658 603.482 142.658Z" fill="#F2F2F2"/>
<path d="M798.13 475.793C804.608 475.793 809.86 470.541 809.86 464.063C809.86 457.585 804.608 452.334 798.13 452.334C791.653 452.334 786.401 457.585 786.401 464.063C786.401 470.541 791.653 475.793 798.13 475.793Z" fill="#FF6584"/>
<path d="M890.596 591.745V458.195" stroke="#3F3D56" stroke-width="2" stroke-miterlimit="10"/>
<path d="M890.596 477.08C901.026 477.08 909.482 468.625 909.482 458.194C909.482 447.764 901.026 439.309 890.596 439.309C880.166 439.309 871.71 447.764 871.71 458.194C871.71 468.625 880.166 477.08 890.596 477.08Z" fill="#3F3D56"/>
<path d="M853.401 532.969C826.122 574.804 833.596 628.012 833.596 628.012C833.596 628.012 885.3 613.393 912.58 571.558C939.859 529.724 932.385 476.516 932.385 476.516C932.385 476.516 880.681 491.135 853.401 532.969Z" fill="#3F3D56"/>
<path d="M833.451 627.526C833.451 627.526 832.787 627.42 831.565 627.173C830.59 626.975 829.248 626.693 827.609 626.304C812.956 622.849 774.001 611.171 748.532 580.467C716.655 542.021 717.998 488.307 717.998 488.307C717.998 488.307 766.738 496.226 798.855 530.752C800.247 532.236 801.601 533.774 802.917 535.366C830.654 568.818 833.239 613.828 833.444 624.955C833.472 626.622 833.451 627.526 833.451 627.526Z" fill="#21A985"/>
<path d="M813.791 532.969C841.071 574.804 833.596 628.012 833.596 628.012C833.596 628.012 781.893 613.393 754.613 571.558C727.333 529.724 734.808 476.516 734.808 476.516C734.808 476.516 786.512 491.135 813.791 532.969Z" stroke="#3F3D56" stroke-width="2" stroke-miterlimit="10"/>
<path opacity="0.1" d="M833.444 624.955C832.723 625.824 832.088 626.565 831.565 627.173C830.406 628.494 829.749 629.186 829.749 629.186C829.749 629.186 828.951 628.183 827.609 626.304C820.24 616.032 796.537 579.506 798.367 537.315C798.466 535.104 798.629 532.916 798.855 530.752C800.246 532.236 801.601 533.773 802.917 535.365C830.654 568.817 833.239 613.827 833.444 624.955Z" fill="black"/>
<path d="M873.893 540.367C871.736 590.263 834.697 629.187 834.697 629.187C834.697 629.187 801.154 587.213 803.31 537.317C805.466 487.42 842.506 448.496 842.506 448.496C842.506 448.496 876.049 490.47 873.893 540.367Z" fill="#21A985"/>
<path d="M834.697 627.774L842.84 450.531" stroke="#3F3D56" stroke-width="2" stroke-miterlimit="10"/>
<path d="M57.4717 627.969H903.492" stroke="#3F3D56" stroke-width="2" stroke-miterlimit="10"/>
<path d="M237.156 411.815C260.755 411.815 279.885 392.684 279.885 369.085C279.885 345.486 260.755 326.355 237.156 326.355C213.557 326.355 194.426 345.486 194.426 369.085C194.426 392.684 213.557 411.815 237.156 411.815Z" fill="#21A985"/>
<path d="M164.526 512.378C188.125 512.378 207.256 493.247 207.256 469.648C207.256 446.049 188.125 426.918 164.526 426.918C140.927 426.918 121.796 446.049 121.796 469.648C121.796 493.247 140.927 512.378 164.526 512.378Z" fill="#21A985"/>
<path d="M75.1355 592.69C98.7345 592.69 117.865 573.559 117.865 549.96C117.865 526.361 98.7345 507.23 75.1355 507.23C51.5365 507.23 32.4058 526.361 32.4058 549.96C32.4058 573.559 51.5365 592.69 75.1355 592.69Z" fill="#21A985"/>
<path d="M75.0977 627.235V549.725" stroke="#3F3D56" stroke-width="2" stroke-miterlimit="10"/>
<path d="M75.0977 560.686C81.1514 560.686 86.0588 555.778 86.0588 549.725C86.0588 543.671 81.1514 538.764 75.0977 538.764C69.0441 538.764 64.1367 543.671 64.1367 549.725C64.1367 555.778 69.0441 560.686 75.0977 560.686Z" fill="#3F3D56"/>
<path d="M75.0976 597.496C75.0976 597.496 73.5318 563.818 41.4316 567.733Z" fill="#3F3D56"/>
<path d="M237.182 627.78V369.242" stroke="#3F3D56" stroke-width="2" stroke-miterlimit="10"/>
<path d="M237.182 380.08C243.236 380.08 248.143 375.173 248.143 369.119C248.143 363.066 243.236 358.158 237.182 358.158C231.129 358.158 226.221 363.066 226.221 369.119C226.221 375.173 231.129 380.08 237.182 380.08Z" fill="#3F3D56"/>
<path d="M203.516 567.133C209.57 567.133 214.477 562.226 214.477 556.172C214.477 550.118 209.57 545.211 203.516 545.211C197.463 545.211 192.555 550.118 192.555 556.172C192.555 562.226 197.463 567.133 203.516 567.133Z" fill="#3F3D56"/>
<path d="M237.182 425.108C237.182 425.108 235.616 391.429 203.516 395.344Z" fill="#3F3D56"/>
<path d="M237.182 520.582C237.182 520.582 235.616 486.904 203.516 490.819Z" fill="#3F3D56"/>
<path d="M237.182 624.766C237.182 624.766 244.229 559.304 203.516 556.172" stroke="#3F3D56" stroke-width="2" stroke-miterlimit="10"/>
<path d="M270.853 567.133C276.907 567.133 281.814 562.226 281.814 556.172C281.814 550.118 276.907 545.211 270.853 545.211C264.8 545.211 259.892 550.118 259.892 556.172C259.892 562.226 264.8 567.133 270.853 567.133Z" fill="#3F3D56"/>
<path d="M237.187 624.766C237.187 624.766 230.141 559.304 270.853 556.172" stroke="#3F3D56" stroke-width="2" stroke-miterlimit="10"/>
<path d="M271.521 464.315C277.574 464.315 282.482 459.407 282.482 453.354C282.482 447.3 277.574 442.393 271.521 442.393C265.467 442.393 260.56 447.3 260.56 453.354C260.56 459.407 265.467 464.315 271.521 464.315Z" fill="#3F3D56"/>
<path d="M237.855 518.456C237.855 518.456 230.808 456.485 271.521 453.354" stroke="#3F3D56" stroke-width="2" stroke-miterlimit="10"/>
<path d="M164.565 627.415V469.602" stroke="#3F3D56" stroke-width="2" stroke-miterlimit="10"/>
<path d="M164.565 480.561C170.619 480.561 175.526 475.653 175.526 469.6C175.526 463.546 170.619 458.639 164.565 458.639C158.511 458.639 153.604 463.546 153.604 469.6C153.604 475.653 158.511 480.561 164.565 480.561Z" fill="#3F3D56"/>
<path d="M164.565 514.24C164.565 514.24 162.999 480.562 130.899 484.477Z" fill="#3F3D56"/>
<path d="M164.565 624.401C164.565 624.401 171.611 559.638 130.899 556.506" stroke="#3F3D56" stroke-width="2" stroke-miterlimit="10"/>
<path d="M130.899 567.467C136.952 567.467 141.86 562.56 141.86 556.506C141.86 550.452 136.952 545.545 130.899 545.545C124.845 545.545 119.938 550.452 119.938 556.506C119.938 562.56 124.845 567.467 130.899 567.467Z" fill="#3F3D56"/>
<path d="M766.482 387.658C776.423 387.658 784.482 379.599 784.482 369.658C784.482 359.717 776.423 351.658 766.482 351.658C756.541 351.658 748.482 359.717 748.482 369.658C748.482 379.599 756.541 387.658 766.482 387.658Z" fill="#F2F2F2"/>
<path d="M64.4819 450.658C74.4231 450.658 82.4819 442.599 82.4819 432.658C82.4819 422.717 74.4231 414.658 64.4819 414.658C54.5408 414.658 46.4819 422.717 46.4819 432.658C46.4819 442.599 54.5408 450.658 64.4819 450.658Z" fill="#F2F2F2"/>
<path d="M652.607 160.519V71.5136C652.607 43.0634 629.544 20 601.094 20H412.52C384.069 19.9995 361.006 43.0626 361.005 71.5128V559.804C361.005 588.254 384.069 611.317 412.519 611.317H601.091C629.541 611.317 652.605 588.254 652.605 559.804V223.875C654.397 223.875 655.85 222.422 655.85 220.63L655.852 163.764C655.852 161.972 654.399 160.519 652.607 160.519Z" fill="#3F3D56"/>
<path d="M642.934 67.2295V562.419C612.828 560.569 628.141 600.236 603.878 601.483H411.435C389.856 601.486 372.359 583.997 372.353 562.419V67.2295C372.359 45.6515 389.855 28.1633 411.433 28.166H425.625C421.76 37.6705 452.953 40.7628 455.344 40.7658H553.903C564.163 40.7528 588.917 30.3811 588.016 28.166H603.87C625.44 28.1697 642.926 45.6523 642.934 67.222V67.2295Z" fill="white"/>
<path d="M359.488 171.422C358.116 171.422 357 172.538 357 173.91V193.818C357 195.19 358.116 196.306 359.488 196.306C360.861 196.306 361.977 195.19 361.977 193.818V173.91C361.977 172.538 360.861 171.422 359.488 171.422Z" fill="#3F3D56"/>
<path d="M359.488 231.145C358.116 231.145 357 232.261 357 233.633V272.204C357 273.576 358.116 274.692 359.488 274.692C360.861 274.692 361.977 273.576 361.977 272.204V233.633C361.977 232.261 360.861 231.145 359.488 231.145Z" fill="#3F3D56"/>
<path d="M359.488 285.891C358.116 285.891 357 287.007 357 288.379V326.95C357 328.322 358.116 329.438 359.488 329.438C360.861 329.438 361.977 328.322 361.977 326.95V288.379C361.977 287.007 360.861 285.891 359.488 285.891Z" fill="#3F3D56"/>
<path d="M577.644 221.291H435.209C425.446 221.28 417.534 213.369 417.523 203.605V142.38C417.534 132.617 425.446 124.705 435.209 124.694C480.659 112.102 528.327 113.282 577.644 124.694C587.407 124.706 595.318 132.618 595.329 142.38V203.605C595.318 213.368 587.407 221.28 577.644 221.291Z" fill="#F2F2F2"/>
<path d="M592.155 285.458H420.699C418.946 285.456 417.526 284.036 417.524 282.283V239.753C417.526 238.001 418.947 236.58 420.699 236.578H592.155C593.908 236.58 595.328 238.001 595.33 239.753V282.284C595.328 284.037 593.908 285.457 592.155 285.459V285.458ZM420.699 237.848C419.648 237.849 418.795 238.701 418.794 239.753V282.284C418.795 283.336 419.648 284.188 420.699 284.189H592.155C593.207 284.188 594.059 283.336 594.06 282.284V239.753C594.059 238.701 593.207 237.849 592.155 237.848H420.699Z" fill="#E6E6E6"/>
<path d="M473.723 252.125C472.496 252.151 471.522 253.167 471.548 254.394C471.573 255.585 472.532 256.545 473.723 256.57H578.501C579.728 256.617 580.761 255.66 580.808 254.434C580.855 253.207 579.898 252.174 578.671 252.127H473.723V252.125Z" fill="#E6E6E6"/>
<path d="M473.723 265.463C472.496 265.489 471.522 266.505 471.548 267.732C471.573 268.923 472.532 269.883 473.723 269.908H578.501C579.728 269.955 580.761 268.998 580.808 267.771C580.855 266.544 579.898 265.512 578.671 265.465H473.723V265.463Z" fill="#E6E6E6"/>
<path d="M444.29 269.911C449.201 269.911 453.181 265.93 453.181 261.02C453.181 256.11 449.201 252.129 444.29 252.129C439.38 252.129 435.399 256.11 435.399 261.02C435.399 265.93 439.38 269.911 444.29 269.911Z" fill="#E6E6E6"/>
<path d="M592.155 494.212H420.699C418.946 494.21 417.526 492.79 417.524 491.037V448.507C417.526 446.754 418.947 445.334 420.699 445.332H592.155C593.908 445.334 595.328 446.754 595.33 448.507V491.038C595.328 492.791 593.908 494.211 592.155 494.213V494.212ZM420.699 446.602C419.647 446.603 418.795 447.455 418.794 448.507V491.038C418.795 492.09 419.647 492.942 420.699 492.943L572.678 491.445C573.73 491.444 589.677 485.497 589.678 484.445L594.06 448.507C594.059 447.455 593.207 446.603 592.155 446.602H420.699Z" fill="#E6E6E6"/>
<path d="M473.723 467.217C472.496 467.191 471.48 468.165 471.454 469.393C471.428 470.62 472.402 471.636 473.629 471.662C473.66 471.663 473.692 471.663 473.723 471.662H578.501C579.728 471.709 580.761 470.753 580.808 469.526C580.855 468.299 579.898 467.266 578.671 467.219H473.723V467.217Z" fill="#E6E6E6"/>
<path d="M444.29 478.665C449.201 478.665 453.181 474.684 453.181 469.774C453.181 464.863 449.201 460.883 444.29 460.883C439.38 460.883 435.399 464.863 435.399 469.774C435.399 474.684 439.38 478.665 444.29 478.665Z" fill="#E6E6E6"/>
<path d="M592.155 406.212H420.699C418.946 406.21 417.526 404.79 417.524 403.037V360.507C417.526 358.754 418.947 357.334 420.699 357.332H592.155C593.908 357.334 595.328 358.754 595.33 360.507V403.038C595.328 404.791 593.908 406.211 592.155 406.213V406.212ZM420.699 358.602C419.647 358.603 418.795 359.455 418.794 360.507V403.038C418.795 404.09 419.647 404.942 420.699 404.943L572.678 403.445C573.73 403.444 589.677 397.497 589.678 396.445L594.06 360.507C594.059 359.455 593.207 358.603 592.155 358.602H420.699Z" fill="#E6E6E6"/>
<path d="M473.723 379.217C472.496 379.191 471.48 380.165 471.454 381.393C471.428 382.62 472.402 383.636 473.629 383.662C473.66 383.663 473.692 383.663 473.723 383.662H578.501C579.728 383.709 580.761 382.753 580.808 381.526C580.855 380.299 579.898 379.266 578.671 379.219H473.723V379.217Z" fill="#E6E6E6"/>
<path d="M444.29 390.665C449.201 390.665 453.181 386.684 453.181 381.774C453.181 376.863 449.201 372.883 444.29 372.883C439.38 372.883 435.399 376.863 435.399 381.774C435.399 386.684 439.38 390.665 444.29 390.665Z" fill="#E6E6E6"/>
<path d="M439.418 181.357C444.62 183.084 450.074 184.832 455.627 184.537C458.154 184.403 460.585 183.8 462.877 182.728C465.228 181.629 467.376 180.136 469.756 179.095C478.501 175.267 487.175 181.806 495.331 184.26C499.4 185.485 503.679 185.778 507.66 184.072C512.057 182.188 515.375 178.592 518.995 175.59C527.114 168.858 537.706 165.229 548.243 165.504C559.802 165.805 570.99 170.91 578.95 179.261C579.617 179.961 580.677 178.899 580.01 178.2C573.054 170.902 563.681 165.982 553.699 164.491C543.696 162.996 533.312 164.993 524.517 169.974C520.066 172.495 516.496 175.946 512.575 179.166C508.757 182.302 504.512 184.323 499.478 183.656C490.806 182.508 483.347 175.826 474.353 176.431C468.609 176.818 464.506 181.14 459.101 182.518C452.652 184.162 445.913 181.934 439.817 179.91C438.899 179.605 438.505 181.053 439.418 181.357Z" fill="#3F3D56"/>
<path d="M455.7 189.348C458.769 189.348 461.256 186.861 461.256 183.792C461.256 180.724 458.769 178.236 455.7 178.236C452.632 178.236 450.144 180.724 450.144 183.792C450.144 186.861 452.632 189.348 455.7 189.348Z" fill="#21A985"/>
<path d="M503.664 189.594C506.733 189.594 509.22 187.107 509.22 184.038C509.22 180.97 506.733 178.482 503.664 178.482C500.596 178.482 498.108 180.97 498.108 184.038C498.108 187.107 500.596 189.594 503.664 189.594Z" fill="#21A985"/>
<path d="M552.374 170.749C555.443 170.749 557.93 168.261 557.93 165.193C557.93 162.124 555.443 159.637 552.374 159.637C549.306 159.637 546.818 162.124 546.818 165.193C546.818 168.261 549.306 170.749 552.374 170.749Z" fill="#21A985"/>
<path d="M601.284 569.787H579.245C575.396 569.787 572.265 566.655 572.265 562.806C568.087 551.455 567.56 541.273 572.265 532.767C572.265 528.918 575.396 525.787 579.245 525.787C585.762 521.059 593.36 522.495 601.284 525.787C605.133 525.787 608.265 528.918 608.265 532.767C605.59 542.391 605.784 552.433 608.265 562.806C608.265 566.655 605.133 569.787 601.284 569.787Z" fill="#21A985"/>
<path d="M599.153 539.155H581.353C580.739 539.155 580.24 538.657 580.24 538.042C580.24 537.428 580.739 536.93 581.353 536.93H599.153C599.767 536.93 600.265 537.428 600.265 538.042C600.265 538.657 599.767 539.155 599.153 539.155Z" fill="white"/>
<path d="M599.153 548.053H581.353C580.739 548.053 580.24 547.555 580.24 546.941C580.24 546.326 580.739 545.828 581.353 545.828H599.153C599.767 545.828 600.265 546.326 600.265 546.941C600.265 547.555 599.767 548.053 599.153 548.053Z" fill="white"/>
<path d="M599.153 556.952H581.353C580.739 556.952 580.24 556.453 580.24 555.839C580.24 555.225 580.739 554.727 581.353 554.727H599.153C599.767 554.727 600.265 555.225 600.265 555.839C600.265 556.453 599.767 556.952 599.153 556.952Z" fill="white"/>
<path d="M508.098 373.516C540.131 373.516 566.098 347.548 566.098 315.516C566.098 283.483 540.131 257.516 508.098 257.516C476.066 257.516 450.098 283.483 450.098 315.516C450.098 347.548 476.066 373.516 508.098 373.516Z" fill="#21A985"/>
<path d="M517.316 296.579C512.421 296.78 506.888 297.116 503.27 300.872C500.126 304.135 499.438 308.978 502.625 312.461C505.821 315.954 510.79 316.427 514.473 319.152C518.799 322.351 518.165 328.681 513.98 331.713C509.043 335.289 502.67 333.622 498.158 330.22C497.001 329.348 495.879 331.301 497.022 332.163C501.065 335.211 506.341 336.908 511.34 335.449C515.851 334.133 519.348 330.454 519.704 325.669C519.874 323.386 519.224 321.068 517.804 319.265C516.305 317.362 514.146 316.191 511.964 315.238C508.206 313.597 501.737 311.475 502.829 306.134C504.153 299.66 512.033 299.046 517.316 298.829C518.759 298.77 518.766 296.52 517.316 296.579Z" fill="white"/>
<path d="M508.236 293.516L508.02 342.91C508.013 344.358 510.263 344.36 510.27 342.91L510.486 293.516C510.492 292.068 508.242 292.067 508.236 293.516Z" fill="white"/>
</g>
<defs>
<clipPath id="clip0_153_878">
<rect width="933.321" height="629.287" fill="white"/>
</clipPath>
</defs>
</svg>
